<svg version="1.1" xmlns="http://www.w3.org/2000/svg" xmlns:xlink="http://www.w3.org/1999/xlink" width="91.68081" height="93.05677" viewBox="0,0,91.68081,93.05677"><g transform="translate(-194.15962,-133.34662)"><g data-paper-data="{&quot;isPaintingLayer&quot;:true}" fill-rule="nonzero" stroke-linecap="butt" stroke-miterlimit="10" stroke-dasharray="" stroke-dashoffset="0" style="mix-blend-mode: normal"><g><path d="M239.86193,223.02743l-43.7023,-43.97851l43.97851,-43.7023l43.7023,43.97851z" fill="#39b54a" stroke="#000000" stroke-width="4" stroke-linejoin="round"/><path d="M239.86193,223.02743l-43.7023,-43.97851l43.97851,-43.7023l43.7023,43.97851z" fill="#39b54a" stroke="none" stroke-width="0" stroke-linejoin="round"/><path d="M239.902,210.29956l-31.01454,-31.21055l31.21055,-31.01454l31.01454,31.21055z" fill="#3ac54d" stroke="none" stroke-width="1" stroke-linejoin="miter"/></g><g data-paper-data="{&quot;index&quot;:null}"><g fill="#39b54a" stroke="#000000" stroke-linejoin="round"><g stroke-width="3.5"><path d="M219.4807,194.65128l10.03991,10.39659l-20.14341,19.4523l-10.03991,-10.39659z" data-paper-data="{&quot;index&quot;:null}"/><path d="M239.07946,214.58153l-10.36565,10.07186l-19.51423,-20.08343l10.36565,-10.07186z" data-paper-data="{&quot;index&quot;:null}"/></g><g stroke-width="0"><path d="M219.4807,194.65128l10.03991,10.39659l-20.14341,19.4523l-10.03991,-10.39659z" data-paper-data="{&quot;index&quot;:null}"/><path d="M239.07947,214.58153l-10.36564,10.07186l-19.51423,-20.08343l10.36565,-10.07186z" data-paper-data="{&quot;index&quot;:null}"/></g></g><g fill="#3ac54d" stroke="none" stroke-width="1" stroke-linejoin="miter"><path d="M219.36744,200.38081l4.40926,4.53223l-14.24417,13.85764l-4.40925,-4.53223z" data-paper-data="{&quot;index&quot;:null}"/><path d="M214.81689,204.74024l4.49285,-4.44938l13.98374,14.12038l-4.49285,4.44938z"/></g></g></g></g></svg>