<svg version="1.1" xmlns="http://www.w3.org/2000/svg" xmlns:xlink="http://www.w3.org/1999/xlink" width="91.68081" height="93.05676" viewBox="0,0,91.68081,93.05676"><g transform="translate(-194.15961,-133.34662)"><g data-paper-data="{&quot;isPaintingLayer&quot;:true}" fill-rule="nonzero" stroke-linecap="butt" stroke-miterlimit="10" stroke-dasharray="" stroke-dashoffset="0" style="mix-blend-mode: normal"><g><path d="M239.86192,223.02743l-43.7023,-43.97851l43.97851,-43.7023l43.7023,43.97851z" fill="#39b54a" stroke="#000000" stroke-width="4" stroke-linejoin="round"/><path d="M239.86192,223.02743l-43.7023,-43.97851l43.97851,-43.7023l43.7023,43.97851z" fill="#39b54a" stroke="none" stroke-width="0" stroke-linejoin="round"/><path d="M239.90201,210.29957l-31.01454,-31.21055l31.21055,-31.01454l31.01454,31.21055z" fill="#3ac54d" stroke="none" stroke-width="1" stroke-linejoin="miter"/></g><g data-paper-data="{&quot;index&quot;:null}"><g fill="#39b54a" stroke="#000000" stroke-linejoin="round"><g stroke-width="3.5"><path d="M199.33727,205.04789l10.03991,-10.39659l20.14341,19.4523l-10.03991,10.39659z" data-paper-data="{&quot;index&quot;:null}"/><path d="M219.56524,224.65338l-10.36565,-10.07186l19.51423,-20.08343l10.36565,10.07186z" data-paper-data="{&quot;index&quot;:null}"/></g><g stroke-width="0"><path d="M199.33727,205.04789l10.03991,-10.39659l20.14341,19.4523l-10.03991,10.39659z" data-paper-data="{&quot;index&quot;:null}"/><path d="M219.56524,224.65338l-10.36565,-10.07186l19.51423,-20.08343l10.36564,10.07186z" data-paper-data="{&quot;index&quot;:null}"/></g></g><g fill="#3ac54d" stroke="none" stroke-width="1" stroke-linejoin="miter"><path d="M205.12326,204.91303l4.40925,-4.53223l14.24417,13.85764l-4.40926,4.53223z" data-paper-data="{&quot;index&quot;:null}"/><path d="M228.80063,200.29086l4.49285,4.44938l-13.98374,14.12038l-4.49285,-4.44938z"/></g></g></g></g></svg>