<svg version="1.1" xmlns="http://www.w3.org/2000/svg" xmlns:xlink="http://www.w3.org/1999/xlink" width="91.68076" height="91.68076" viewBox="0,0,91.68076,91.68076"><g transform="translate(-194.15964,-134.15963)"><g data-paper-data="{&quot;isPaintingLayer&quot;:true}" fill-rule="nonzero" stroke-linecap="butt" stroke-miterlimit="10" stroke-dasharray="" stroke-dashoffset="0" style="mix-blend-mode: normal"><path d="M196.15964,180.14559l43.6948,-43.98596l43.98596,43.6948l-43.6948,43.98596z" fill="#39b54a" stroke="#000000" stroke-width="4" stroke-linejoin="round"/><path d="M196.1596,180.14562l43.6948,-43.98596l43.98596,43.6948l-43.6948,43.98596z" fill="#5f38b5" stroke="none" stroke-width="1" stroke-linejoin="miter"/><g fill="#432880" stroke="none" stroke-width="1" stroke-linejoin="miter"><path d="M230.03012,158.81981l9.86657,-9.93231l23.83063,23.67288l-9.86657,9.93231z"/><path d="M235.95606,195.42237l25.22416,-25.39223l9.93231,9.86657l-25.22416,25.39223z"/><path d="M215.64805,186.81916l9.86657,-9.93231l24.45527,24.29339l-9.86657,9.93231z"/><path d="M208.88748,180.10333l24.9139,-25.07991l9.93231,9.86657l-24.9139,25.07991z"/></g><g><g fill="#432880" stroke="#000000" stroke-linejoin="round"><path d="M206.6953,217.33646l-0.03531,-14.45295l28.00258,-0.06846l0.03532,14.45294z" data-paper-data="{&quot;index&quot;:null}" stroke-width="3.5"/><path d="M206.6953,217.33646l-0.03531,-14.45295l28.00258,-0.06846l0.03532,14.45294z" data-paper-data="{&quot;index&quot;:null}" stroke-width="0"/></g><path d="M210.75363,213.21021l0.00793,-6.32317l19.87285,0.02492l-0.00794,6.32318z" data-paper-data="{&quot;index&quot;:null}" fill="#5f38b5" stroke="none" stroke-width="1" stroke-linejoin="miter"/></g></g></g></svg>