<svg version="1.1" xmlns="http://www.w3.org/2000/svg" xmlns:xlink="http://www.w3.org/1999/xlink" width="91.68096" height="92.24386" viewBox="0,0,91.68096,92.24386"><g transform="translate(-194.1595,-134.15952)"><g data-paper-data="{&quot;isPaintingLayer&quot;:true}" fill-rule="nonzero" stroke-linecap="butt" stroke-miterlimit="10" stroke-dasharray="" stroke-dashoffset="0" style="mix-blend-mode: normal"><path d="M240.11155,223.84048l-43.95205,-43.72891l43.72891,-43.95205l43.95205,43.72891z" fill="#39b54a" stroke="#000000" stroke-width="4" stroke-linejoin="round"/><path d="M240.11158,223.84051l-43.95205,-43.72891l43.72891,-43.95205l43.95205,43.72891z" fill="#3a50bd" stroke="none" stroke-width="1" stroke-linejoin="miter"/><path d="M218.81207,189.95348l-9.92466,-9.87427l9.87427,-9.92466l9.92466,9.87427z" fill="#31439e" stroke="none" stroke-width="1" stroke-linejoin="miter"/><path d="M239.97122,168.68636l-9.92466,-9.87427l9.87427,-9.92466l9.92466,9.87427z" fill="#31439e" stroke="none" stroke-width="1" stroke-linejoin="miter"/><path d="M261.23834,189.84551l-9.92466,-9.87427l9.87427,-9.92466l9.92466,9.87427z" fill="#31439e" stroke="none" stroke-width="1" stroke-linejoin="miter"/><path d="M240.07919,211.11263l-9.92466,-9.87427l9.87427,-9.92466l9.92466,9.87427z" fill="#31439e" stroke="none" stroke-width="1" stroke-linejoin="miter"/><g fill="#31439e" stroke="#000000" stroke-linejoin="round"><g stroke-width="3.5"><path d="M199.33728,205.04789l10.03991,-10.39659l20.14341,19.4523l-10.03991,10.39659z" data-paper-data="{&quot;index&quot;:null}"/><path d="M219.56525,224.65338l-10.36565,-10.07186l19.51423,-20.08343l10.36565,10.07186z" data-paper-data="{&quot;index&quot;:null}"/></g><g stroke-width="0"><path d="M199.33728,205.04789l10.03991,-10.39659l20.14341,19.4523l-10.03991,10.39659z" data-paper-data="{&quot;index&quot;:null}"/><path d="M219.56525,224.65338l-10.36565,-10.07186l19.51423,-20.08343l10.36564,10.07186z" data-paper-data="{&quot;index&quot;:null}"/></g></g><g fill="#3a50bd" stroke="none" stroke-width="1" stroke-linejoin="miter"><path d="M205.12327,204.91303l4.40925,-4.53223l14.24417,13.85764l-4.40926,4.53223z" data-paper-data="{&quot;index&quot;:null}"/><path d="M228.80064,200.29086l4.49285,4.44938l-13.98374,14.12038l-4.49285,-4.44938z"/></g></g></g></svg>