<svg version="1.1" xmlns="http://www.w3.org/2000/svg" xmlns:xlink="http://www.w3.org/1999/xlink" width="91.68076" height="92.24375" viewBox="0,0,91.68076,92.24375"><g transform="translate(-194.15964,-134.15963)"><g data-paper-data="{&quot;isPaintingLayer&quot;:true}" fill-rule="nonzero" stroke-linecap="butt" stroke-miterlimit="10" stroke-dasharray="" stroke-dashoffset="0" style="mix-blend-mode: normal"><path d="M196.15964,180.14559l43.6948,-43.98596l43.98596,43.6948l-43.6948,43.98596z" fill="#39b54a" stroke="#000000" stroke-width="4" stroke-linejoin="round"/><path d="M196.1596,180.14562l43.6948,-43.98596l43.98596,43.6948l-43.6948,43.98596z" fill="#5f38b5" stroke="none" stroke-width="1" stroke-linejoin="miter"/><g fill="#432880" stroke="none" stroke-width="1" stroke-linejoin="miter"><path d="M230.03012,158.81981l9.86657,-9.93231l23.83063,23.67288l-9.86657,9.93231z"/><path d="M235.95606,195.42237l25.22416,-25.39223l9.93231,9.86657l-25.22416,25.39223z"/><path d="M215.64805,186.81916l9.86657,-9.93231l24.45527,24.29339l-9.86657,9.93231z"/><path d="M208.88748,180.10333l24.9139,-25.07991l9.93231,9.86657l-24.9139,25.07991z"/></g><g><g fill="#432880" stroke="#000000" stroke-linejoin="round"><g stroke-width="3.5"><path d="M199.33728,205.04789l10.03991,-10.39659l20.14341,19.4523l-10.03991,10.39659z" data-paper-data="{&quot;index&quot;:null}"/><path d="M219.56525,224.65338l-10.36565,-10.07186l19.51423,-20.08343l10.36565,10.07186z" data-paper-data="{&quot;index&quot;:null}"/></g><g stroke-width="0"><path d="M199.33728,205.04789l10.03991,-10.39659l20.14341,19.4523l-10.03991,10.39659z" data-paper-data="{&quot;index&quot;:null}"/><path d="M219.56525,224.65338l-10.36565,-10.07186l19.51423,-20.08343l10.36564,10.07186z" data-paper-data="{&quot;index&quot;:null}"/></g></g><g fill="#5f38b5" stroke="none" stroke-width="1" stroke-linejoin="miter"><path d="M205.12327,204.91303l4.40925,-4.53223l14.24417,13.85764l-4.40926,4.53223z" data-paper-data="{&quot;index&quot;:null}"/><path d="M228.80064,200.29086l4.49285,4.44938l-13.98374,14.12038l-4.49285,-4.44938z"/></g></g></g></g></svg>