<svg version="1.1" xmlns="http://www.w3.org/2000/svg" xmlns:xlink="http://www.w3.org/1999/xlink" width="91.6802" height="91.6802" viewBox="0,0,91.6802,91.6802"><g transform="translate(-194.1599,-134.1599)"><g data-paper-data="{&quot;isPaintingLayer&quot;:true}" fill-rule="nonzero" stroke-linecap="butt" stroke-miterlimit="10" stroke-dasharray="" stroke-dashoffset="0" style="mix-blend-mode: normal"><path d="M196.1599,179.78686l44.05324,-43.62696l43.62696,44.05324l-44.05324,43.62696z" fill="#39b54a" stroke="#000000" stroke-width="4" stroke-linejoin="round"/><path d="M196.1599,179.78686l44.05324,-43.62696l43.62696,44.05324l-44.05324,43.62696z" fill="#39b54a" stroke="none" stroke-width="0" stroke-linejoin="round"/><path d="M208.88767,179.84874l31.26359,-30.96107l30.96107,31.26359l-31.26359,30.96107z" fill="#3ac54d" stroke="none" stroke-width="1" stroke-linejoin="miter"/><path d="M196.15989,179.78687l22.73716,-22.51714l43.62696,44.05324l-22.73716,22.51714z" fill="#b50000" stroke="none" stroke-width="0" stroke-linejoin="round"/><path d="M208.88766,179.84875l9.94751,-9.85125l30.96107,31.26359l-9.94751,9.85125z" fill="#c42828" stroke="none" stroke-width="1" stroke-linejoin="miter"/><path d="M283.82015,180.13149l-22.73716,22.51714l-43.62696,-44.05324l22.73716,-22.51714z" data-paper-data="{&quot;index&quot;:null}" fill="#b50000" stroke="none" stroke-width="0" stroke-linejoin="round"/><path d="M271.09238,180.06961l-9.94751,9.85125l-30.96107,-31.26359l9.94751,-9.85125z" data-paper-data="{&quot;index&quot;:null}" fill="#c42828" stroke="none" stroke-width="1" stroke-linejoin="miter"/><g><g fill="#b50000" stroke="#000000" stroke-linejoin="round"><path d="M206.69529,217.33646l-0.03531,-14.45295l28.00258,-0.06846l0.03532,14.45294z" data-paper-data="{&quot;index&quot;:null}" stroke-width="3.5"/><path d="M206.69529,217.33646l-0.03531,-14.45295l28.00258,-0.06846l0.03532,14.45294z" data-paper-data="{&quot;index&quot;:null}" stroke-width="0"/></g><path d="M210.75362,213.21021l0.00793,-6.32317l19.87285,0.02492l-0.00794,6.32318z" data-paper-data="{&quot;index&quot;:null}" fill="#c42828" stroke="none" stroke-width="1" stroke-linejoin="miter"/></g></g></g></svg>