<svg version="1.1" xmlns="http://www.w3.org/2000/svg" xmlns:xlink="http://www.w3.org/1999/xlink" width="91.68096" height="91.68096" viewBox="0,0,91.68096,91.68096"><g transform="translate(-194.1595,-134.15952)"><g data-paper-data="{&quot;isPaintingLayer&quot;:true}" fill-rule="nonzero" stroke-linecap="butt" stroke-miterlimit="10" stroke-dasharray="" stroke-dashoffset="0" style="mix-blend-mode: normal"><path d="M240.11155,223.84048l-43.95205,-43.72891l43.72891,-43.95205l43.95205,43.72891z" fill="#39b54a" stroke="#000000" stroke-width="4" stroke-linejoin="round"/><path d="M240.11158,223.84051l-43.95205,-43.72891l43.72891,-43.95205l43.95205,43.72891z" fill="#3a50bd" stroke="none" stroke-width="1" stroke-linejoin="miter"/><path d="M218.81207,189.95348l-9.92466,-9.87427l9.87427,-9.92466l9.92466,9.87427z" fill="#31439e" stroke="none" stroke-width="1" stroke-linejoin="miter"/><path d="M239.97122,168.68636l-9.92466,-9.87427l9.87427,-9.92466l9.92466,9.87427z" fill="#31439e" stroke="none" stroke-width="1" stroke-linejoin="miter"/><path d="M261.23834,189.84551l-9.92466,-9.87427l9.87427,-9.92466l9.92466,9.87427z" fill="#31439e" stroke="none" stroke-width="1" stroke-linejoin="miter"/><path d="M240.07919,211.11263l-9.92466,-9.87427l9.87427,-9.92466l9.92466,9.87427z" fill="#31439e" stroke="none" stroke-width="1" stroke-linejoin="miter"/><g><g fill="#31439e" stroke="#000000" stroke-linejoin="round"><path d="M206.6953,217.33646l-0.03531,-14.45295l28.00258,-0.06846l0.03532,14.45294z" data-paper-data="{&quot;index&quot;:null}" stroke-width="3.5"/><path d="M206.6953,217.33646l-0.03531,-14.45295l28.00258,-0.06846l0.03532,14.45294z" data-paper-data="{&quot;index&quot;:null}" stroke-width="0"/></g><path d="M210.75363,213.21021l0.00793,-6.32317l19.87285,0.02492l-0.00794,6.32318z" data-paper-data="{&quot;index&quot;:null}" fill="#3a50bd" stroke="none" stroke-width="1" stroke-linejoin="miter"/></g></g></g></svg>